<?xml version="1.0" encoding="utf-8"?>
<!-- Generator: Adobe Illustrator 23.0.5, SVG Export Plug-In . SVG Version: 6.00 Build 0)  -->
<svg version="1.1" xmlns="http://www.w3.org/2000/svg" xmlns:xlink="http://www.w3.org/1999/xlink" x="0px" y="0px"
	 viewBox="0 0 252.48 178.09" style="enable-background:new 0 0 252.48 178.09;" xml:space="preserve">
<style type="text/css">
.st0{
	fill:black;
	stroke:black;
	stroke-width:2;
	stroke-dasharray: 1800;
	stroke-dashoffset: 0;
	stroke-miterlimit:10;
	-webkit-animation: animacion 8s forwards;
	-moz-animation: animacion 8s forwards;
	-o-animation: animacion 8s forwards;
	animation: animacion 8s forwards;
}
.st1{
	fill:none;
	stroke:#000;
	stroke-width:2;
	stroke-dasharray: 1800;
	stroke-dashoffset: 0;
	stroke-miterlimit:10;
	-webkit-animation: animacion 8s forwards;
	-moz-animation: animacion 8s forwards;
	-o-animation: animacion 8s forwards;
	animation: animacion 8s forwards;
}

.st2{
	fill: #F9EEA0;
	-webkit-animation: logo1 2s forwards 4.5s;
	-moz-animation: logo1 2s forwards 4.5s;
	-o-animation: logo1 2s forwards 4.5s;
	animation: logo1 2s forwards 4.5s;
	stroke:#none;
	stroke-width:2;
	stroke-dasharray: 1800;
	stroke-dashoffset: 0;
	stroke-miterlimit:10;
	-webkit-animation: animacion 8s forwards;
	-moz-animation: animacion 8s forwards;
	-o-animation: animacion 8s forwards;
	animation: animacion 8s forwards;
}

.st3{
	fill: #9AC76A;
	-webkit-animation: logo1 2s forwards 4.5s;
	-moz-animation: logo1 2s forwards 4.5s;
	-o-animation: logo1 2s forwards 4.5s;
	animation: logo1 2s forwards 4.5s;
	stroke:#none;
	stroke-width:2;
	stroke-dasharray: 1800;
	stroke-dashoffset: 0;
	stroke-miterlimit:10;
	-webkit-animation: animacion 8s forwards;
	-moz-animation: animacion 8s forwards;
	-o-animation: animacion 8s forwards;
	animation: animacion 8s forwards;
}

.st4{
	fill: #F8CAD4;
	-webkit-animation: logo1 2s forwards 4.5s;
	-moz-animation: logo1 2s forwards 4.5s;
	-o-animation: logo1 2s forwards 4.5s;
	animation: logo1 2s forwards 4.5s;
	stroke:#none;
	stroke-width:2;
	stroke-dasharray: 1800;
	stroke-dashoffset: 0;
	stroke-miterlimit:10;
	-webkit-animation: animacion 8s forwards;
	-moz-animation: animacion 8s forwards;
	-o-animation: animacion 8s forwards;
	animation: animacion 8s forwards;
}

.st5{
	fill: #D2BFDD;
	-webkit-animation: logo1 2s forwards 4.5s;
	-moz-animation: logo1 2s forwards 4.5s;
	-o-animation: logo1 2s forwards 4.5s;
	animation: logo1 2s forwards 4.5s;
	stroke:#none;
	stroke-width:2;
	stroke-dasharray: 1800;
	stroke-dashoffset: 0;
	stroke-miterlimit:10;
	-webkit-animation: animacion 8s forwards;
	-moz-animation: animacion 8s forwards;
	-o-animation: animacion 8s forwards;
	animation: animacion 8s forwards;
}

.st6{
	fill: #9ED7ED;
	-webkit-animation: logo1 2s forwards 4.5s;
	-moz-animation: logo1 2s forwards 4.5s;
	-o-animation: logo1 2s forwards 4.5s;
	animation: logo1 2s forwards 4.5s;
	stroke:#none;
	stroke-width:2;
	stroke-dasharray: 1800;
	stroke-dashoffset: 0;
	stroke-miterlimit:10;
	-webkit-animation: animacion 8s forwards;
	-moz-animation: animacion 8s forwards;
	-o-animation: animacion 8s forwards;
	animation: animacion 8s forwards;
}

@-webkit-keyframes animacion {
	0% {
		stroke-dashoffset: 1800;
	}
	90% {
		stroke:  #solid;
	}
	100% {
		stroke-dashoffset: 0;
		stroke: solid;
	}
}

@-keyframes animacion {
	0% {
		stroke-dashoffset: 1800;
	}
	90% {
		stroke:  #b77ef8;
	}
	100% {
		stroke-dashoffset: 0;
		stroke: solid;
	}
}
@-webkit-keyframes logo1 {​​​​
	from {​​​​
		fill:  #b77ef8;
	}​​​
	to {​​​​
		fill: #fff;
	}​​​​

}​​​​

@-keyframes logo1 {​​​​
	from {​​​​
		fill: transparent;
	}​​​	​

	to {​​​​
		fill: #fff;
	}​​​​
}​​​​		
</style>
<g id="Logo">
	<g>
		<path class="st0" d="M64.57,92.41c-0.41,0.97-10.13,23.93-18.25,30.77c-0.14,0.12-0.31,0.2-0.48,0.25c-0.49,0.33-1,0.64-1.57,0.89
			c-0.54,0.25-1.13,0.45-1.75,0.57c-0.31,0.06-0.63,0.1-0.96,0.12c-0.39,0.01-0.8-0.03-1.19-0.13c-0.78-0.21-1.45-0.65-1.95-1.12
			c-0.51-0.47-0.91-0.98-1.25-1.48c-0.68-1.01-1.17-2.03-1.63-3.05c-1.13-2.58-1.94-5.52-2.62-8.74c-0.17-0.79-0.45-2.29-0.74-4.15
			c-0.04-0.26-0.08-0.52-0.12-0.79c-2.96,3.94-5.88,6.94-8.67,8.87v0c-1.77,1.21-3.54,2.49-5.9,3.46c-0.19,0.08-0.38,0.14-0.6,0.22
			c-0.23,0.06-0.46,0.13-0.7,0.18c-0.24,0.05-0.49,0.1-0.75,0.12c-0.26,0.02-0.52,0.07-0.79,0.06c-1.08,0.01-2.24-0.24-3.34-0.81
			c-0.28-0.13-0.66-0.36-1.12-0.68c-0.22-0.17-0.46-0.36-0.72-0.58c-0.13-0.11-0.25-0.23-0.37-0.36c-0.12-0.11-0.24-0.23-0.35-0.35
			c-0.92-0.95-1.77-2.17-2.44-3.41c-1.36-2.49-2.07-5.07-2.3-6.17c-0.95-4.43-0.95-9.13-0.13-13.73c0.45-2.29,1.05-4.56,1.92-6.73
			c0.42-1.09,0.91-2.15,1.45-3.18c0.55-1.02,1.15-2.02,1.8-2.96c0.64-0.95,2.35-3.09,4.49-4.8c1.06-0.86,2.2-1.6,3.21-2.14
			c0.51-0.26,0.97-0.49,1.37-0.65c0.39-0.17,0.73-0.29,0.96-0.36c1.89-0.65,3.72-0.81,5.24-0.69c0.59,0.03,1.17,0.11,1.74,0.17
			c0.57,0.09,1.1,0.14,1.71,0.25c0.73,0.14,1.45,0.35,2.13,0.62c0.05-2.52,0.14-5.05,0.29-7.59c0.29-4.21,0.64-8.42,1.22-12.55
			c0.53-4.14,1.26-8.19,2.12-12.1c0.42-1.95,1.58-6.49,3.08-10.87c0.74-2.19,1.58-4.34,2.35-6.11c0.77-1.78,1.48-3.18,1.88-3.91
			c1.63-3.01,3.49-5.67,5.65-7.65c0.83-0.77,1.73-1.49,2.73-2.1c1-0.61,2.09-1.11,3.26-1.39c0.29-0.08,0.59-0.11,0.88-0.17
			c0.3-0.04,0.6-0.06,0.89-0.08c0.3,0,0.58-0.01,0.9,0.01c0.32,0.02,0.65,0.06,0.97,0.13c0.65,0.14,1.28,0.42,1.83,0.79
			c0.55,0.37,1.01,0.84,1.38,1.32l0,0.01l-0.01,0.01c0.05,0.05,0.1,0.1,0.15,0.16c2.64,3.45,3.08,10.91,1.31,22.18
			c-2.2,13.95-7.54,31.64-14.29,47.32c-2.13,4.95-4.31,9.5-6.51,13.59c-0.12,2.02-0.27,4.45-0.39,6.84
			c-0.24,4.38-0.3,8.61-0.3,10.12c-0.02,3.07,0.03,5.87,0.32,8.2c0.12,0.91,0.31,1.8,0.6,2.55c0.29,0.76,0.7,1.32,1.05,1.49
			c0.09,0.05,0.19,0.08,0.3,0.1c0.18,0.01,0.36,0.02,0.55,0c0.37-0.03,0.76-0.12,1.15-0.26c0.77-0.29,1.54-0.78,2.24-1.37
			c7.53-7.3,16.67-28.89,16.76-29.11c0.27-0.64,1-0.93,1.63-0.67C64.54,91.05,64.84,91.78,64.57,92.41z M31.56,101.95
			c-0.08-0.64-0.16-1.28-0.24-1.94c-0.53-4.49-0.92-9.06-1.02-11.01c-0.12-1.96-0.21-3.94-0.29-5.95c-0.08-2.03-0.12-4.09-0.13-6.16
			c0-0.75,0-1.51,0-2.27c-0.7-0.36-1.5-0.5-2.28-0.41c-0.39,0.05-0.86,0.17-1.28,0.29c-0.43,0.15-0.84,0.32-1.23,0.54
			c-1.01,0.56-2,1.28-2.92,2.17c-0.11,0.11-0.27,0.26-0.46,0.46c-0.19,0.19-0.41,0.44-0.65,0.71c-0.47,0.55-0.98,1.25-1.44,2.01
			c-0.93,1.51-1.59,3.27-1.9,4c-0.61,1.49-1.12,3.1-1.61,4.77c-0.45,1.69-0.89,3.43-1.18,5.21c-0.67,3.55-1.04,7.2-1.06,10.49
			c0.01,0.81-0.06,2.75,0.2,4.41c0.12,0.83,0.3,1.57,0.48,2.08c0.02,0.06,0.04,0.12,0.07,0.18c0.01,0.04,0.02,0.09,0.03,0.13
			c0.03,0.08,0.05,0.16,0.08,0.24c0.06,0.14,0.11,0.27,0.16,0.35c0.18,0.34,0.46,0.65,0.79,0.89c0.17,0.12,0.35,0.22,0.55,0.3
			c0.1,0.04,0.2,0.08,0.3,0.12c0.1,0.03,0.24,0.07,0.37,0.09c0.81,0.17,1.72,0.12,2.6-0.11c0.88-0.24,1.73-0.65,2.52-1.19l0,0
			C25.11,110.22,28.35,106.59,31.56,101.95z M40.31,86.75c8.35-16.96,15.4-38.49,18.02-55.15c2.18-13.86,0.42-18.65-0.82-20.27
			c-0.05-0.06-0.08-0.12-0.11-0.18l-0.02,0.02c-0.48-0.62-1.06-0.98-1.73-1.08c-0.17-0.02-0.34-0.03-0.52-0.02
			c-0.18,0.01-0.4,0.04-0.6,0.06c-0.2,0.04-0.4,0.08-0.59,0.13c-0.19,0.07-0.39,0.11-0.57,0.2c-1.5,0.61-2.71,1.89-3.6,3.41
			c-1.17,1.96-2.12,4.5-2.96,7.39c-0.2,0.7-0.58,2.04-0.97,3.74c-0.39,1.7-0.8,3.75-1.14,5.86c-0.7,4.21-1.12,8.6-1.34,10.47
			c-0.43,3.75-0.76,7.65-1.11,11.62c-0.3,3.97-0.63,8.02-0.84,12.07c-0.25,4.05-0.48,8.11-0.67,12.11
			C40.6,80.38,40.45,83.6,40.31,86.75z"/>
	</g>
	<g>
		<path class="st0" d="M106.95,129.26c-1.02,3.12-10.19,30.62-16.86,35.34c0,0,0,0-0.01,0c-0.46,0.32-0.99,0.65-1.73,0.83
			c-0.19,0.04-0.37,0.07-0.59,0.08c-0.26,0-0.54-0.03-0.8-0.12c-0.53-0.17-0.92-0.51-1.19-0.8c-0.54-0.6-0.8-1.14-1.07-1.66
			c-0.26-0.51-0.48-1-0.7-1.49c-0.57-1.26-1.03-2.66-1.41-4.19c-0.2-0.74-0.6-2.8-0.92-4.87c-0.32-2.07-0.59-4.17-0.64-5.06
			c-0.13-1.79-0.24-3.62-0.24-5.46c-0.05-1.84,0-3.7,0.02-5.54c0.1-3.68,0.33-7.31,0.55-10.63c0.04-0.83,0.26-2.77,0.35-4.6
			c0.05-0.92,0.06-1.81,0.05-2.53c-0.01-0.72-0.05-1.28-0.06-1.57c-0.07-1.19-0.2-2.17-0.44-2.91c-0.19-0.59-0.54-1.04-1.13-1.27
			c-0.6-0.23-1.33-0.19-2.01,0.11c0,0,0,0,0,0c-4.15,1.78-8.43,8.03-12.06,17.62c-2.73,7.21-4.37,14.5-4.78,18.77
			c0.01,0.08,0.02,0.16,0.03,0.24l0,0l-0.06,0.01c-0.05,0.6-0.08,1.13-0.08,1.6c0,0.69-0.56,1.25-1.25,1.25
			c-0.69,0-1.25-0.56-1.25-1.25c0-0.5,0.03-1.08,0.09-1.73c-0.24-1.51-0.41-2.98-0.62-4.44c-0.23-1.65-0.49-3.29-0.79-4.93
			c-0.39-2.12-0.75-4.54-1-7.2c-0.14-1.29-0.39-4.88-0.49-8.57c-0.11-3.69-0.08-7.46,0.01-9.08c0.16-3.23,0.4-6.57,0.85-9.95
			c0.41-3.38,1.01-6.81,1.72-10.22c1.48-6.81,3.6-13.58,6.56-19.65c0.71-1.52,2.61-5.01,4.98-8.19c0.58-0.8,1.21-1.57,1.81-2.29
			c0.63-0.72,1.23-1.4,1.82-1.98c0.57-0.6,1.15-1.1,1.61-1.53c0.48-0.42,0.89-0.74,1.17-0.96c2.29-1.81,4.79-3.02,7.06-3.67
			c1.8-0.5,3.62-0.78,5.41-0.85l0.67-0.03l0.67,0.02c0.45,0.01,0.89,0.01,1.31,0.04c0.85,0.05,1.7,0.11,2.56,0.2c0,0,0,0,0.01,0
			c11.05,1.12,11.9,8.2,11.74,11.19c-0.32,6.23-5.23,13.79-12.82,19.72c-6.9,5.39-15.07,8.83-23.51,9.98
			c-0.02,0.12-0.05,0.24-0.08,0.36c-0.72,3.17-1.3,6.38-1.93,9.55c-0.58,3.17-1.17,6.31-1.71,9.35c-0.26,1.52-0.97,5.08-1.59,8.58
			c-0.45,2.51-0.85,4.99-1.12,6.65c0.22-0.62,0.44-1.24,0.68-1.86c2.73-7.23,7.28-16.41,13.41-19.03v0
			c1.01-0.43,2.14-0.73,3.37-0.72c0.62,0.01,1.27,0.1,1.9,0.3c0.64,0.19,1.24,0.49,1.81,0.83c1.44,0.88,2.61,2.27,3.51,3.78
			c0.23,0.37,0.62,1.09,1.01,1.98c0.4,0.89,0.81,1.96,1.16,3.04c0.71,2.15,1.21,4.33,1.36,5.27c0.64,3.74,0.84,7.65,0.76,11.51
			c-0.08,1.92-0.16,3.83-0.35,5.7c-0.16,1.86-0.42,3.68-0.69,5.43c-0.13,0.87-0.56,2.9-0.98,4.86c-0.42,1.96-0.81,3.85-0.96,4.52
			c-0.31,1.39-0.61,2.64-0.83,3.7c-0.08,0.41-0.14,0.81-0.15,1.17c-0.02,0.35,0.03,0.69,0.05,0.82c-0.01,0.03,0.01,0.02-0.03,0.06
			c0.16-0.04,0.38-0.13,0.58-0.28h0c5.08-3.59,13.22-25.82,15.93-34.08c0.21-0.66,0.92-1.01,1.57-0.8
			C106.8,127.9,107.16,128.61,106.95,129.26z M70.04,94.42c18.75-2.95,32.78-17.45,33.28-27.22c0.25-4.96-3.04-7.93-9.51-8.59v0
			c-0.78-0.08-1.57-0.1-2.35-0.08c-0.4,0.01-0.77,0.05-1.15,0.1l-0.56,0.07l-0.55,0.12c-1.46,0.32-2.83,0.95-4.01,1.8
			c-1.49,1.1-2.96,2.54-4.32,4.37c-0.68,0.88-2.47,3.46-3.81,6.49c-1.39,2.99-2.44,6.28-2.91,7.68
			C72.57,83.9,71.23,89.1,70.04,94.42z"/>
	</g>
</g>
<g id="Linea">
	<g>
		<g>
			<path class="st0" d="M106.51,131.21c0.35-1.01,0.7-2.02,1.05-3.03c0.23-0.66,0.44-1.45,0.9-2c1.37-1.63,2.3,2.16,2.53,2.93
				c0.38,1.31,1.51,2.74,2.99,1.74c1.47-0.99,1.29-3.18,2.55-4.32c0.71-0.64,0.97-0.27,1.2,0.49c0.3,1,0.5,2.05,0.75,3.07
				c0.36,1.48,0.67,3.15,1.92,4.16c1.29,1.06,2.97,0.94,4.06-0.31c1.34-1.55,2.42-3.42,3.59-5.1c0.92-1.32-1.24-2.57-2.16-1.26
				c-0.65,0.93-1.31,1.87-1.96,2.8c-0.32,0.46-1.18,2.21-1.77,2.06c-0.64-0.16-0.85-1.4-0.99-1.91c-0.27-1.02-0.5-2.05-0.75-3.07
				c-0.38-1.56-0.81-3.36-2.63-3.74c-1.57-0.33-3.04,0.78-3.81,2.05c-0.24,0.4-0.42,0.84-0.61,1.27c-0.16,0.39-0.55,0.96-0.6,1.37
				c-0.06,0.11-0.12,0.21-0.17,0.32c0.81,0.34,1.08,0.24,0.81-0.29c0.02-0.4-0.27-1.02-0.4-1.41c-0.5-1.54-1.4-3.15-3.07-3.63
				c-3.88-1.12-4.98,4.65-5.84,7.14C103.57,132.07,105.98,132.73,106.51,131.21L106.51,131.21z"/>
		</g>
	</g>
	<path class="st1" d="M126.78,128.53c0,0,1.64-3.24,3.9-2.52c2.82,0.9,5.5,3.24,6.04,6.55c0.12,0.74,0.12,1.52-0.11,2.23
		c-0.38,1.13-1.34,1.95-2.38,2.37c-0.45,0.18-0.96,0.31-1.42,0.15c-1.16-0.4-1.24-2.13-1.04-3.44c0.84-5.36,2.73-10.52,5.5-15.04
		c1.62-2.64,4.4-4.86,7.48-4.74c3.64,0.13,5.33,3.99,6.1,7.36c0.02,0.01,0.1,1.82,0.11,1.96c0.19,1.63,0.44,3.25,0.73,4.86
		c0.65,3.62,1.38,7.56,3.1,10.78c0.95,1.78,2.69,3.03,3.37,4.98c0.63,1.8-1.19,1.85-2.37,1.68c-0.32-0.35-11.65-14.73-2.87-35.18
		c0.16-0.35,4.31-9.36,10.22,2.95c0-0.17,6.86,16.46,8.94,8.49c-0.16-0.17,0.64-13.52,0.64-13.52s-1.28-20.1,12.13-15.42
		c-0.16-0.35,10.7,2.95,27.14,15.25c1.24,1.53,5.63,3.12,4.26,6.03c-0.21,0.46-0.57,0.81-0.96,1.1c-0.72,0.54-1.58,0.91-2.45,0.87
		c-2.72-0.11-4.11-3.83-5.28-5.95c-0.18-0.33-0.36-0.66-0.62-0.91c-0.25-0.25-0.56-0.41-0.88-0.54c-7.52-3-6.42,9.12-5.72,13.25
		c-0.48-0.35,7.54,20.45,16.14,16.64c3.51-1.55,4.55-5.58,2.59-9.08c-1.55-2.76-5.57-3.22-8.07-1.73
		c-6.07,3.63-4.95,13.23-4.86,19.39c0.05,3.41-0.46,8.21,3.12,9.81c1.22,0.55,2.63,0.45,3.89,0.01c2.72-0.95,4.29-2.59,5.13-5.56
		c0.69-2.45-0.64-4.69-2.7-5.79c-6.07-3.24-15.68,3.08-20.67,6.29c-2.06,1.33-4.02,3.32-4.32,6.03c-0.31,2.74,1.08,6.18,3.58,7.1
		c1.88,0.69,4.1,0.78,5.73-0.63c2.6-2.24,2.3-6.05,0.63-8.77c-1.76-2.87-4.85-4.2-7.89-4.69c-1.05-0.17-2.11-0.25-3.17-0.26
		c-0.32,0-15.64-2.43-14.53,5.54c0.21,1.49,0.87,3.07,1.93,4.18c2.05,2.14,6.76,2.13,8.45-0.59c1.39-2.25-0.22-6.45-1.36-8.51
		c-2.23-4.03-5.95-6.95-9.66-9.21c-1.61-0.98-3.56-1.38-5.45-1.27c-2.63,0.15-7.38,3.03-5.66,6.74c0.18,0.39,0.47,0.69,0.78,0.96
		c1.37,1.19,3.2,1.76,4.94,1.53c4.05-0.52,7.98-7.59,3.64-10.51c-4.7-3.17-10.35-0.25-12.77,4.57c-2.3,4.57-1.07,9.58,2.2,13.23
		c4.69,5.23,10.01,9.93,16.2,12.89c15.02,7.19,35.34,0.38,43.86-15.03c-0.16,0,11.17-18.37-1.92-36.39c0,0-2.55-2.25-32.25,8.14
		c-0.24-0.13-1.01,0.23-1.24,0.3c-1.02,0.28-2.05,0.59-3.07,0.89c-3.05,0.91-6.09,1.84-9.13,2.78c-3,0.92-6,1.85-9,2.79
		c-1.3,0.41-2.61,0.81-3.91,1.22c-0.27-1.1-0.59-2.24-1.33-3.05c-0.21-0.23-0.46-0.43-0.76-0.5c-0.54-0.12-1.06,0.22-1.52,0.55
		c-2.54,1.85-5.01,3.85-7.73,5.37c-0.33,0.18-0.78,0.33-1.01,0.01c-0.17-0.24-0.05-0.62,0.19-0.8c0.23-0.17,0.53-0.2,0.82-0.2
		c2.89-0.04,5.8,1.19,8.61,0.46c0.84-0.22,1.68-0.65,2.14-1.44c0.37-0.64,0.44-1.44,0.34-2.19c-0.01-0.1-0.03-0.2-0.09-0.28
		c-0.06-0.09-0.17-0.13-0.25-0.19c-0.78-0.56,0.15-1.47,0.63-1.74c0.6-0.34,1.27-0.5,1.92-0.69c2.35-0.66,4.76-1.16,7.13-1.75
		c1.9-0.47,3.8-0.93,5.7-1.38c0.56-0.13,1.12-0.27,1.68-0.4L228,114l19.16-4.55"/>
</g>
<g id="Colores">
	<path class="st2" d="M207.3,151.16c0,0-0.54-6.44,4.85-4.94c-0.15,0.16,8.05,0.97,2.68,7.44
		C214.98,153.75,208.35,158.68,207.3,151.16"/>
	<g id="Capa_3">
		<path class="st3" d="M209.13,133.32c-0.01-1.28,0.89-2.5,1.8-3.3c0.86-0.76,1.93-1.05,3.03-0.95c1.8,0.16,4.37,0.94,4.9,3.07
			c0.18,0.73,0.11,1.46-0.28,2.09c-1.07,1.73-3.75,2.39-5.56,2.35c-1.39-0.03-3.04-0.81-3.67-2.23
			C209.2,134.01,209.13,133.66,209.13,133.32"/>
	</g>
	<g id="Capa_5">
		<path class="st4" d="M192.3,157.29c0,0,2.16-4.85,5.96-1.54c0.22,0.16,4.4,4.21,0,7.04C198.19,163.04,189.99,164.98,192.3,157.29"
			/>
	</g>
	<g id="Capa_6">
		<path class="st5" d="M176.53,154.5c0.32-0.57,0.82-1.07,1.31-1.39c1.55-1.04,3.86-1.28,5.18,0.23c1.48,1.69,2.09,4.02,0.72,6.02
			c-0.7,1.03-2.13,1.42-3.25,1.35c-1.56-0.1-2.31-1.33-3.19-2.6C176.58,157.08,175.85,155.74,176.53,154.5"/>
	</g>
	<g id="Capa_7">
		<path class="st6" d="M171.76,143.6c-0.57-0.79-1.89-0.82-3.09-0.8c-0.9,0.02-1.79,0.26-2.51,0.88c-0.98,0.85-2.3,2.86-1.04,3.96
			c1.1,0.96,2.74,1.89,4.19,1.43c1.3-0.42,2.34-2.34,2.64-3.68C172.14,144.55,172.04,143.98,171.76,143.6"/>
	</g>
</g>
</svg>
